<svg width="15" height="16" viewBox="0 0 15 16" fill="none" xmlns="http://www.w3.org/2000/svg">
<path d="M14.3332 8.51392C14.3332 9.34729 14.0098 10.1273 13.4208 10.7158L11.2893 12.8455C11.2913 12.8146 11.2933 12.7858 11.2953 12.7549C11.2973 12.726 11.2993 12.6952 11.2993 12.6663C11.3013 12.6066 11.3034 12.5469 11.3034 12.4851C11.3034 11.38 10.8728 10.341 10.0901 9.55696L7.92969 7.39836L9.01487 6.31407C10.2301 5.0999 12.2072 5.0999 13.42 6.31407C14.009 6.90051 14.3324 7.68257 14.3324 8.51392H14.3332Z" fill="white"/>
<path d="M4.31449 9.55739C3.52975 10.3415 3.09928 11.3805 3.09928 12.4856C3.09928 12.5473 3.10128 12.6071 3.10329 12.6669C3.10729 12.7265 3.11171 12.7863 3.11573 12.846L0.982174 10.7163C-0.231037 9.50212 -0.231037 7.52874 0.982174 6.31497C1.57113 5.72653 2.35385 5.40344 3.18593 5.40344C4.01801 5.40344 4.80074 5.72653 5.38768 6.31497L6.47532 7.39927L4.31489 9.55784L4.31449 9.55739Z" fill="white"/>
<path d="M10.2728 12.4853C10.2728 12.9009 10.1926 13.3042 10.0382 13.6766C9.88369 14.051 9.65501 14.3925 9.36057 14.6871C8.782 15.2655 8.01372 15.5882 7.20612 15.5967H7.19369C6.38007 15.5843 5.61619 15.2632 5.03927 14.6871C4.45032 14.0987 4.12695 13.3166 4.12695 12.4853C4.12695 11.6539 4.45233 10.8742 5.03927 10.2854L7.1997 8.12683L9.36013 10.2854C9.94909 10.8739 10.2725 11.6539 10.2725 12.4853H10.2728Z" fill="white"/>
<path d="M7.20132 5.31047C8.60477 5.31047 9.74253 4.17373 9.74253 2.77149C9.74253 1.36925 8.60477 0.232513 7.20132 0.232513C5.79787 0.232513 4.66016 1.36925 4.66016 2.77149C4.66016 4.17373 5.79787 5.31047 7.20132 5.31047Z" fill="white"/>
</svg>
